<svg width="1024" height="1024" viewBox="0 0 1024 1024" fill="none" xmlns="http://www.w3.org/2000/svg">
<path d="M530.996 127.84C541.62 127.378 553.745 129.731 563 135C563.811 135.459 564.622 135.918 565.457 136.391C572.434 140.599 578.664 145.622 584.969 150.75C589.126 154.123 593.365 157.383 597.625 160.625C598.344 161.172 599.063 161.72 599.803 162.284C601.213 163.356 602.622 164.429 604.032 165.501C606.863 167.657 609.682 169.828 612.5 172C617.492 175.844 622.494 179.674 627.5 183.5C634.678 188.986 641.842 194.488 649 200C651.166 201.667 653.333 203.333 655.5 205C658.704 207.464 661.907 209.929 665.109 212.395C671.231 217.108 677.362 221.809 683.5 226.5C690.678 231.986 697.842 237.488 705 243C707.166 244.667 709.333 246.333 711.5 248C714.704 250.464 717.907 252.929 721.109 255.395C727.231 260.108 733.362 264.809 739.5 269.5C746.678 274.986 753.842 280.488 761 286C763.166 287.667 765.333 289.333 767.5 291C770.704 293.464 773.907 295.929 777.109 298.395C783.231 303.108 789.362 307.809 795.5 312.5C802.678 317.986 809.842 323.488 817 329C819.166 330.667 821.333 332.333 823.5 334C826.704 336.464 829.907 338.929 833.109 341.395C834.146 342.192 835.182 342.99 836.25 343.812C836.774 344.217 837.299 344.621 837.839 345.037C840.956 347.435 844.08 349.823 847.211 352.203C857.927 360.353 868.473 368.572 878.418 377.664C879.843 378.953 881.274 380.236 882.731 381.488C895.493 392.464 907.842 404.552 918 418C918.767 418.962 919.534 419.923 920.324 420.914C966.397 478.875 987.708 553.694 979.75 627.27C972.18 688.651 944.752 745.653 902.392 790.507C900.297 792.754 898.278 795.068 896.25 797.375C893.068 800.922 889.773 804.113 886.129 807.18C883.701 809.256 881.392 811.439 879.062 813.625C809.047 877.276 714.863 899.397 622.536 895.907C613.943 895.479 605.482 894.41 597 893C595.198 892.71 595.198 892.71 593.359 892.414C522.137 880.641 457.406 848.279 406.125 797.375C405.257 796.516 404.389 795.658 403.495 794.773C397.576 788.824 392.217 782.569 387 776C386.047 774.831 385.093 773.663 384.137 772.496C372.993 758.579 363.334 743.758 355 728C354.66 727.359 354.32 726.718 353.97 726.057C336.027 691.896 324.772 655.282 324.87 616.547C324.875 613.978 324.87 611.409 324.863 608.84C324.864 607.206 324.865 605.572 324.867 603.938C324.865 603.17 324.863 602.402 324.861 601.611C324.885 596.23 324.885 596.23 326 594C318.157 600.055 310.47 606.235 302.979 612.721C298.869 616.274 294.683 619.708 290.422 623.078C285.903 626.664 281.459 630.341 277 634C275.167 635.5 273.334 637 271.5 638.5C270.592 639.243 269.685 639.985 268.75 640.75C240.333 664 211.917 687.25 183.5 710.5C182.585 711.249 181.67 711.998 180.727 712.77C178.972 714.205 177.217 715.64 175.461 717.074C174.181 718.12 174.181 718.12 172.875 719.187C171.973 719.925 171.07 720.662 170.141 721.422C167.748 723.382 165.365 725.353 162.984 727.328C158.671 730.903 154.342 734.46 150 738C149.404 738.487 148.807 738.974 148.193 739.476C128.697 755.291 107.372 764.873 81.6328 762.535C67.485 760.451 53.8294 754.584 45 743C35.5765 728.193 33.3386 713.778 36.6836 696.461C42.5383 673.406 57.5462 657.978 76 644C76.6552 643.503 77.3103 643.006 77.9853 642.494C81.2688 640.011 84.5666 637.548 87.8711 635.094C92.2747 631.811 96.609 628.443 100.938 625.062C108.945 618.81 117.004 612.629 125.081 606.467C127.892 604.318 130.696 602.159 133.5 600C138.492 596.156 143.494 592.326 148.5 588.5C155.678 583.014 162.843 577.512 170 572C177.886 565.926 185.784 559.868 193.693 553.824C200.139 548.896 206.572 543.951 213 539C220.886 532.926 228.784 526.868 236.693 520.824C243.139 515.896 249.572 510.951 256 506C263.886 499.926 271.784 493.868 279.693 487.824C286.139 482.896 292.572 477.951 299 473C301.711 470.914 304.423 468.828 307.135 466.743C309.794 464.698 312.452 462.652 315.109 460.605C321.96 455.331 328.824 450.074 335.693 444.824C342.139 439.896 348.572 434.951 355 430C362.883 423.929 370.776 417.873 378.682 411.833C384.123 407.674 389.552 403.5 394.973 399.316C397.369 397.483 399.775 395.664 402.189 393.855C402.904 393.319 403.62 392.783 404.356 392.231C404.899 391.825 405.441 391.419 406 391C404.981 390.999 403.962 390.997 402.913 390.996C378.09 390.959 353.266 390.899 328.443 390.816C316.439 390.776 304.434 390.744 292.43 390.729C281.963 390.716 271.496 390.689 261.03 390.645C255.491 390.623 249.952 390.607 244.414 390.608C239.193 390.609 233.972 390.591 228.751 390.559C226.842 390.55 224.933 390.549 223.025 390.554C206.781 390.596 192.348 388.616 179.902 377.051C171.534 368.007 169.503 359.138 169.723 347.113C169.978 341.566 171.535 336.954 174 332C174.412 331.161 174.825 330.322 175.25 329.457C183.611 314.137 198.376 304.416 214.551 298.973C224.086 296.284 232.81 295.707 242.66 295.722C244.252 295.717 245.844 295.711 247.435 295.704C251.793 295.688 256.151 295.685 260.509 295.683C265.215 295.68 269.92 295.664 274.625 295.651C282.772 295.628 290.92 295.613 299.067 295.603C310.846 295.589 322.626 295.563 334.405 295.535C353.517 295.49 372.629 295.453 391.741 295.422C410.305 295.392 428.868 295.357 447.432 295.317C449.149 295.314 449.149 295.314 450.9 295.31C456.643 295.298 462.385 295.285 468.128 295.273C515.752 295.169 563.376 295.08 611 295C608.915 293.23 606.829 291.462 604.742 289.693C603.861 288.945 603.861 288.945 602.962 288.182C599.041 284.861 595.072 281.635 591 278.5C585.849 274.502 580.846 270.366 575.895 266.125C572.008 262.812 568.033 259.634 564 256.5C558.851 252.499 553.846 248.366 548.895 244.125C545.008 240.812 541.033 237.634 537 234.5C531.85 230.499 526.845 226.365 521.892 222.123C518.028 218.829 514.074 215.675 510.062 212.562C481.009 189.927 481.009 189.927 478 177C476.75 165.786 478.643 157.336 485.25 148.25C494.978 136.548 509.738 130.222 524.625 128.312C526.748 128.137 528.873 128.01 530.996 127.84Z" fill="white"/>
<path d="M780 432C780.856 432.643 781.712 433.286 782.594 433.949C787.681 437.888 792.454 442.148 797.188 446.5C797.758 447.022 798.328 447.544 798.916 448.081C823.939 471.408 841.415 503.501 848.53 536.805C848.834 538.223 849.145 539.64 849.466 541.055C852.314 553.715 852.368 566.07 852 579C851.981 580.306 851.961 581.612 851.941 582.957C850.201 629.959 824.884 670.771 791.719 702.413C771.354 721.216 746.817 733.609 721 743C720.261 743.27 719.522 743.539 718.761 743.817C683.864 756.294 643.008 757.555 607 750C605.597 749.711 605.597 749.711 604.165 749.417C553.693 738.814 506.614 709.433 478 666C461.371 640.061 450.925 610.932 450 580C449.967 579.128 449.935 578.257 449.901 577.359C448.638 539.956 460.026 503.351 482 473C483.127 471.426 483.127 471.426 484.277 469.82C516.694 425.944 567.915 399.511 621.125 391.125C676.329 383.4 735.658 398.24 780 432Z" fill="#D3D3D3"/>
<path d="M749.508 486.258C761.203 497.367 769.441 510.367 776 525C776.42 525.927 776.84 526.854 777.273 527.809C788.02 553.058 786.01 582.46 775.945 607.523C763.436 637.08 738.716 659.745 709.278 671.913C678.324 684.139 642.556 686.262 611 675C610.364 674.778 609.728 674.557 609.073 674.328C583.79 665.373 560.591 648.744 546 626C545.638 625.439 545.276 624.878 544.903 624.3C529.459 599.928 524.364 571.27 530 543C534.958 521.842 546.072 503.623 561 488C561.806 487.099 561.806 487.099 562.629 486.18C611.463 433.552 699.539 441.27 749.508 486.258Z" fill="#373737"/>
</svg>
